HIERARCHY
ROOT Hips
{
	OFFSET 0.000000 0.000000 0.000000
	CHANNELS 6 Xposition Yposition Zposition Zrotation Yrotation Xrotation 
	JOINT LHipJoint
	{
		OFFSET 0.000000 0.000000 0.000000
		CHANNELS 3 Zrotation Yrotation Xrotation
		JOINT LeftUpLeg
		{
			OFFSET 1.363060 -1.794630 0.839290
			CHANNELS 3 Zrotation Yrotation Xrotation
			JOINT LeftLeg
			{
				OFFSET 2.448110 -6.726130 0.000000
				CHANNELS 3 Zrotation Yrotation Xrotation
				JOINT LeftFoot
				{
					OFFSET 2.562200 -7.039590 0.000000
					CHANNELS 3 Zrotation Yrotation Xrotation
					JOINT LeftToeBase
					{
						OFFSET 0.157640 -0.433110 2.322550
						CHANNELS 3 Zrotation Yrotation Xrotation
						End Site
						{
							OFFSET 0.000000 0.000000 0.000000
						}
					}
				}
			}
		}
	}
	JOINT RHipJoint
	{
		OFFSET 0.000000 0.000000 0.000000
		CHANNELS 3 Zrotation Yrotation Xrotation
		JOINT RightUpLeg
		{
			OFFSET -1.305520 -1.794630 0.839290
			CHANNELS 3 Zrotation Yrotation Xrotation
			JOINT RightLeg
			{
				OFFSET -2.542530 -6.985550 0.000000
				CHANNELS 3 Zrotation Yrotation Xrotation
				JOINT RightFoot
				{
					OFFSET -2.568260 -7.056230 0.000000
					CHANNELS 3 Zrotation Yrotation Xrotation
					JOINT RightToeBase
					{
						OFFSET -0.164730 -0.452590 2.363150
						CHANNELS 3 Zrotation Yrotation Xrotation
						End Site
						{
							OFFSET 0.000000 0.000000 0.000000
						}
					}
				}
			}
		}
	}
	JOINT LowerBack
	{
		OFFSET 0.000000 0.000000 0.000000
		CHANNELS 3 Zrotation Yrotation Xrotation
		JOINT Spine
		{
			OFFSET 0.028270 2.035590 -0.193380
			CHANNELS 3 Zrotation Yrotation Xrotation
			JOINT Spine1
			{
				OFFSET 0.056720 2.048850 -0.042750
				CHANNELS 3 Zrotation Yrotation Xrotation
				JOINT Neck
				{
					OFFSET 0.000000 0.000000 0.000000
					CHANNELS 3 Zrotation Yrotation Xrotation
					JOINT Neck1
					{
						OFFSET -0.054170 1.746240 0.172020
						CHANNELS 3 Zrotation Yrotation Xrotation
						JOINT Head
						{
							OFFSET 0.104070 1.761360 -0.123970
							CHANNELS 3 Zrotation Yrotation Xrotation
							End Site
							{
								OFFSET 0.000000 0.000000 0.000000
							}
						}
					}
				}
				JOINT LeftShoulder
				{
					OFFSET 0.000000 0.000000 0.000000
					CHANNELS 3 Zrotation Yrotation Xrotation
					JOINT LeftArm
					{
						OFFSET 3.362410 1.200890 -0.311210
						CHANNELS 3 Zrotation Yrotation Xrotation
						JOINT LeftForeArm
						{
							OFFSET 4.983000 -0.000000 -0.000000
							CHANNELS 3 Zrotation Yrotation Xrotation
							JOINT LeftHand
							{
								OFFSET 3.483560 -0.000000 -0.000000
								CHANNELS 3 Zrotation Yrotation Xrotation
								JOINT LeftFingerBase
								{
									OFFSET 0.000000 0.000000 0.000000
									CHANNELS 3 Zrotation Yrotation Xrotation
									JOINT LeftHandIndex1
									{
										OFFSET 0.715260 -0.000000 -0.000000
										CHANNELS 3 Zrotation Yrotation Xrotation
										End Site
										{
											OFFSET 0.000000 0.000000 0.000000
										}
									}
								}
								JOINT LThumb
								{
									OFFSET 0.000000 0.000000 0.000000
									CHANNELS 3 Zrotation Yrotation Xrotation
									End Site
									{
										OFFSET 0.000000 0.000000 0.000000
									}
								}
							}
						}
					}
				}
				JOINT RightShoulder
				{
					OFFSET 0.000000 0.000000 0.000000
					CHANNELS 3 Zrotation Yrotation Xrotation
					JOINT RightArm
					{
						OFFSET -3.136600 1.374050 -0.404650
						CHANNELS 3 Zrotation Yrotation Xrotation
						JOINT RightForeArm
						{
							OFFSET -5.241900 -0.000000 -0.000000
							CHANNELS 3 Zrotation Yrotation Xrotation
							JOINT RightHand
							{
								OFFSET -3.444170 -0.000000 -0.000000
								CHANNELS 3 Zrotation Yrotation Xrotation
								JOINT RightFingerBase
								{
									OFFSET 0.000000 0.000000 0.000000
									CHANNELS 3 Zrotation Yrotation Xrotation
									JOINT RightHandIndex1
									{
										OFFSET -0.622530 -0.000000 -0.000000
										CHANNELS 3 Zrotation Yrotation Xrotation
										End Site
										{
											OFFSET 0.000000 0.000000 0.000000
										}
									}
								}
								JOINT RThumb
								{
									OFFSET 0.000000 0.000000 0.000000
									CHANNELS 3 Zrotation Yrotation Xrotation
									End Site
									{
										OFFSET 0.000000 0.000000 0.000000
									}
								}
							}
						}
					}
				}
			}
		}
	}
}
MOTION
Frames: 10
Frame Time: 0.008333
0.911876 17.857286 2.963731 2.374032 4.643788 2.474338 -1.756091 6.657532 6.675410 -21.067508 -3.743284 1.776346 -1.311333 2.294911 14.447791 1.344372 -4.962677 -0.396914 0.008594 -0.252532 -0.694389 2.226594 -4.175617 1.994433 9.463345 16.505745 -29.147276 0.900813 -3.924885 12.546746 6.360365 -20.098461 -0.889339 -0.046812 -1.336786 3.676780 -4.662614 -2.270110 6.095183 3.434234 -3.179074 4.590480 4.415155 -1.659933 -8.432771 -5.248440 -3.503239 -16.387390 1.668784 -3.376719 21.330290 -0.420757 -1.446735 10.040039 -7.085596 2.538392 -1.151811 -75.967694 -2.336546 29.948966 18.823885 -29.907675 -5.282416 -0.280467 -0.760430 -12.319965 31.386384 21.291917 13.077927 -7.125000 0.000000 0.000000 3.231675 55.360440 0.819101 11.230732 -2.145421 -2.539711 74.554911 -2.524900 -3.758101 -8.443968 18.887988 -1.716088 1.005115 -0.453519 8.634089 -16.428951 20.135294 -6.247236 7.125000 0.000000 0.000000 7.029610 -8.878490 5.906314
0.904757 17.845664 3.050172 2.395191 4.694389 2.502994 -1.737951 6.681301 6.701457 -21.035855 -3.687957 2.064105 -1.316800 2.257062 14.367353 1.323604 -4.898378 -0.379283 0.025581 -0.865197 -2.378767 2.226487 -4.184550 1.983734 9.449806 16.570222 -29.146085 0.914762 -3.886963 12.442997 6.301554 -19.945106 -0.751730 -0.022835 -0.880357 2.420340 -4.733747 -2.275897 6.084595 3.483858 -3.193479 4.546943 4.480764 -1.664347 -8.451520 -5.317693 -3.508583 -16.175368 1.681401 -3.394788 21.208213 -0.408672 -1.461004 9.964518 -7.083503 2.531419 -1.150112 -76.016337 -2.135443 29.949295 18.919642 -30.017508 -5.342034 -0.283808 -0.724925 -12.456492 31.133863 19.230621 11.806780 -7.125000 0.000000 0.000000 3.294626 52.954921 0.641704 11.239398 -2.155873 -2.543638 74.436168 -2.565642 -4.201328 -8.299679 18.649878 -1.665171 1.001327 -0.468320 8.998289 -16.303187 20.189693 -6.218309 7.125000 0.000000 0.000000 7.113431 -8.829469 5.984941
0.898554 17.834339 3.137295 2.432984 4.769881 2.514964 -1.719848 6.698099 6.720629 -21.032497 -3.708287 2.332333 -1.316298 2.240365 14.342048 1.291838 -4.798602 -0.325173 0.048202 -1.378166 -3.790541 2.222055 -4.185843 1.983255 9.511688 16.428277 -29.189199 0.920908 -3.885348 12.415603 6.211798 -19.729514 -0.401917 -0.009123 -0.367509 1.009833 -4.811281 -2.298794 6.066123 3.525588 -3.230478 4.560536 4.551978 -1.680919 -8.427878 -5.361215 -3.514741 -16.134894 1.670220 -3.395177 21.167888 -0.405784 -1.466738 9.945011 -7.084070 2.528557 -1.151530 -76.055447 -2.026374 29.943875 19.028491 -30.145892 -5.405468 -0.285908 -0.701676 -12.554207 30.992894 17.880102 10.983474 -7.125000 0.000000 0.000000 3.354248 51.382301 0.527277 11.246000 -2.159885 -2.539789 74.338749 -2.486596 -4.645152 -8.153210 18.400368 -1.614673 0.998233 -0.474153 9.382014 -16.253172 20.055724 -6.160446 7.125000 0.000000 0.000000 7.138656 -8.973053 5.986023
0.893517 17.823395 3.225285 2.491977 4.877098 2.505669 -1.701793 6.706011 6.731038 -21.065201 -3.825044 2.575668 -1.308188 2.250627 14.387010 1.246054 -4.653613 -0.224572 0.078003 -1.764072 -4.854877 2.212112 -4.177400 1.995803 9.669697 16.023247 -29.288781 0.917109 -3.930009 12.485524 6.082600 -19.434598 0.218354 -0.008492 0.217248 -0.597034 -4.896974 -2.343498 6.037604 3.557257 -3.296271 4.646944 4.630333 -1.712985 -8.350209 -5.371944 -3.521934 -16.313060 1.628707 -3.373033 21.231756 -0.414617 -1.461593 9.996896 -7.088027 2.530933 -1.156921 -76.082408 -2.034603 29.931130 19.154025 -30.297917 -5.473764 -0.286426 -0.694046 -12.602455 30.994098 17.435473 10.730943 -7.125000 0.000000 0.000000 3.409627 50.871222 0.493108 11.249970 -2.155687 -2.526030 74.268507 -2.254879 -5.089735 -8.003964 18.136328 -1.564708 0.996022 -0.468555 9.790621 -16.299699 19.681678 -6.065705 7.125000 0.000000 0.000000 7.089198 -9.362114 5.888273
0.887985 17.812579 3.312853 2.524961 4.969098 2.509240 -1.678094 6.717061 6.743966 -21.065848 -3.932234 2.847533 -1.290167 2.281958 14.489863 1.206848 -4.509957 -0.219631 0.113879 -2.152703 -5.928713 2.198371 -4.167886 2.005908 9.875473 15.611648 -29.415056 0.907099 -3.993988 12.614808 5.933139 -19.091791 0.853474 -0.010272 0.640898 -1.761287 -4.956592 -2.378510 6.034633 3.598004 -3.347110 4.696546 4.697553 -1.738069 -8.315262 -5.363271 -3.531528 -16.513334 1.566336 -3.352022 21.334933 -0.433079 -1.457203 10.064631 -7.094324 2.534493 -1.159413 -76.107614 -2.095625 29.933821 19.183865 -30.333251 -5.490242 -0.286621 -0.691162 -12.604503 30.976136 17.267994 10.628197 -7.125000 0.000000 0.000000 3.411598 50.675396 0.477202 11.252009 -2.152139 -2.515839 74.200013 -2.110407 -5.444165 -7.888338 17.934096 -1.528152 0.994088 -0.457306 10.099816 -16.333567 19.260004 -5.950344 7.125000 0.000000 0.000000 7.046957 -9.805632 5.789068
0.881641 17.801974 3.399730 2.515384 5.036200 2.533867 -1.645161 6.733245 6.761017 -21.014040 -4.023770 3.166085 -1.255927 2.347767 14.687449 1.178407 -4.368484 -0.371223 0.159697 -2.545792 -7.018094 2.178417 -4.156620 2.012017 10.159415 15.189301 -29.585012 0.886927 -4.089577 12.841233 5.750519 -18.670616 1.512892 -0.016000 0.800920 -2.201262 -4.973545 -2.397661 6.073466 3.653605 -3.373475 4.685923 4.746552 -1.751729 -8.350225 -5.322849 -3.545049 -16.749785 1.469830 -3.332863 21.502434 -0.467297 -1.454049 10.158305 -7.104449 2.539991 -1.157161 -76.129950 -2.243036 29.961772 19.057115 -30.177636 -5.421928 -0.286289 -0.696044 -12.530949 30.926809 17.554030 10.770551 -7.125000 0.000000 0.000000 3.326176 50.995439 0.491180 11.250885 -2.149654 -2.511485 74.134382 -2.108699 -5.651071 -7.827729 17.833001 -1.513535 0.992605 -0.436810 10.246334 -16.346720 18.760394 -5.801243 7.125000 0.000000 0.000000 7.016525 -10.338261 5.687483
0.874680 17.791724 3.486360 2.491255 5.079624 2.558768 -1.615208 6.744850 6.772913 -20.949860 -4.095973 3.415890 -1.218598 2.423252 14.909508 1.157528 -4.264496 -0.478117 0.198764 -2.867684 -7.910833 2.157451 -4.144127 2.017603 10.463600 14.798053 -29.762596 0.860926 -4.198518 13.117441 5.554271 -18.209215 2.138896 -0.016912 0.793249 -2.180238 -4.972623 -2.405997 6.121128 3.701921 -3.384386 4.638112 4.778431 -1.757479 -8.414994 -5.293616 -3.551874 -16.871391 1.400861 -3.320246 21.648731 -0.491451 -1.451528 10.225119 -7.112213 2.543793 -1.153187 -76.135611 -2.332975 30.002823 18.921278 -30.010965 -5.349665 -0.287255 -0.699720 -12.459593 30.913986 17.748886 10.876727 -7.125000 0.000000 0.000000 3.290401 51.217766 0.504493 11.250465 -2.150321 -2.512384 74.081116 -2.209396 -5.828453 -7.782795 17.762228 -1.501729 0.992968 -0.426422 10.337678 -16.353087 18.499551 -5.723649 7.125000 0.000000 0.000000 7.000011 -10.616519 5.633890
0.866398 17.782232 3.572462 2.436055 5.072496 2.584257 -1.591621 6.746680 6.773804 -20.859267 -4.126897 3.518913 -1.174675 2.519398 15.183821 1.152796 -4.240545 -0.489573 0.223421 -3.037559 -8.383715 2.134326 -4.129015 2.022072 10.811008 14.473207 -29.956468 0.822481 -4.335966 13.499944 5.328924 -17.661924 2.693559 -0.007545 0.427534 -1.174921 -4.933538 -2.391242 6.187641 3.734682 -3.362299 4.510899 4.773758 -1.746342 -8.543406 -5.288270 -3.544405 -16.747788 1.390685 -3.321597 21.749754 -0.494121 -1.450364 10.234583 -7.114934 2.543973 -1.145537 -76.105671 -2.300207 30.071846 18.766040 -29.820688 -5.268973 -0.290992 -0.700824 -12.392929 30.979107 17.749057 10.905654 -7.125000 0.000000 0.000000 3.360632 51.231453 0.516384 11.251549 -2.157720 -2.524499 74.054250 -2.528741 -5.942799 -7.771331 17.756197 -1.495921 0.997275 -0.437618 10.311219 -16.344964 18.748509 -5.798734 7.125000 0.000000 0.000000 7.013213 -10.351661 5.682765
0.857904 17.773592 3.658689 2.373004 5.067346 2.604908 -1.569312 6.745618 6.771445 -20.762660 -4.170422 3.581149 -1.125432 2.630247 15.497077 1.161009 -4.271038 -0.483022 0.240144 -3.153282 -8.705831 2.114085 -4.115519 2.029131 11.162839 14.160454 -30.129192 0.782937 -4.471943 13.883666 5.115901 -17.144687 3.220541 -0.000977 0.088003 -0.241679 -4.897750 -2.382464 6.250043 3.781822 -3.348450 4.395406 4.779724 -1.738406 -8.659621 -5.306571 -3.533036 -16.603438 1.388848 -3.315647 21.820140 -0.489623 -1.447404 10.231081 -7.117800 2.543629 -1.139255 -76.099354 -2.243509 30.109239 18.648998 -29.677523 -5.207689 -0.294352 -0.703195 -12.338040 31.071541 17.824966 10.989560 -7.125000 0.000000 0.000000 3.449830 51.337487 0.539660 11.253414 -2.164697 -2.534905 74.015517 -2.806240 -6.104387 -7.743342 17.719400 -1.483760 1.002066 -0.450455 10.338877 -16.361669 18.998965 -5.883685 7.125000 0.000000 0.000000 7.010008 -10.081819 5.718598
0.848800 17.767393 3.745275 2.287446 5.067866 2.611692 -1.550672 6.736267 6.759767 -20.648812 -4.250070 3.526465 -1.060935 2.783247 15.921970 1.206332 -4.457607 -0.424850 0.234125 -3.113774 -8.595753 2.102109 -4.106656 2.043614 11.527347 13.882367 -30.241294 0.740246 -4.603705 14.270880 4.938207 -16.713610 3.668168 -0.002433 -0.176468 0.484946 -4.871417 -2.390817 6.300656 3.870177 -3.358217 4.313506 4.816186 -1.739642 -8.740869 -5.392657 -3.510490 -16.399616 1.410915 -3.288768 21.802701 -0.464579 -1.439298 10.190408 -7.121080 2.541782 -1.136899 -76.160756 -2.118215 30.055958 18.641449 -29.669415 -5.202039 -0.296629 -0.709199 -12.316907 31.242274 18.117990 11.231073 -7.125000 0.000000 0.000000 3.593398 51.708250 0.595573 11.257517 -2.170463 -2.540416 73.942762 -2.963781 -6.401405 -7.667979 17.594407 -1.453381 1.008248 -0.467992 10.521670 -16.449548 19.253713 -5.996918 7.125000 0.000000 0.000000 6.959774 -9.797692 5.717045
